<?xml version="1.0" encoding="UTF-8" standalone="no"?>
<svg
   xmlns:dc="http://purl.org/dc/elements/1.1/"
   xmlns:cc="http://creativecommons.org/ns#"
   xmlns:rdf="http://www.w3.org/1999/02/22-rdf-syntax-ns#"
   xmlns:svg="http://www.w3.org/2000/svg"
   xmlns="http://www.w3.org/2000/svg"
   xmlns:sodipodi="http://sodipodi.sourceforge.net/DTD/sodipodi-0.dtd"
   xmlns:inkscape="http://www.inkscape.org/namespaces/inkscape"
   version="1.1"
   x="0px"
   y="0px"
   width="86px"
   height="86px"
   viewBox="0 0 86 86"
   enable-background="new 0 0 86 86"
   xml:space="preserve"
   id="svg15"
   sodipodi:docname="harbour-sailhub.svg"
   inkscape:version="1.0.1 (3bc2e813f5, 2020-09-07)"><metadata
   id="metadata21"><rdf:RDF><cc:Work
       rdf:about=""><dc:format>image/svg+xml</dc:format><dc:type
         rdf:resource="http://purl.org/dc/dcmitype/StillImage" /><dc:title></dc:title></cc:Work></rdf:RDF></metadata><defs
   id="defs19">
	<linearGradient
   id="SVGID_1_"
   gradientUnits="userSpaceOnUse"
   x1="85.2831"
   y1="0.7169"
   x2="0.7169"
   y2="85.2831">
		<stop
   offset="0.0054"
   style="stop-color:#1de9b6;stop-opacity:1"
   id="stop3" />
		<stop
   offset="1"
   style="stop-color:#00b0ff;stop-opacity:1"
   id="stop5" />
	</linearGradient>
	
	
<radialGradient
   id="SVGID_3_"
   cx="26.9526"
   cy="62.667301"
   r="30.3622"
   gradientTransform="matrix(0.9727,0,0,0.9727,35.7873,-31.6415)"
   gradientUnits="userSpaceOnUse"><stop
     offset="0"
     style="stop-color:#4EB4BA"
     id="stop17" /><stop
     offset="1"
     style="stop-color:#007DA4"
     id="stop19" /></radialGradient><linearGradient
   id="SVGID_1_-5"
   gradientUnits="userSpaceOnUse"
   x1="12.8064"
   y1="73.193703"
   x2="73.193398"
   y2="12.8067"
   gradientTransform="matrix(0.74941451,0,0,0.74941451,35.775176,-14.224824)"><stop
     offset="0"
     style="stop-color:#E36C34"
     id="stop3-3" /><stop
     offset="1"
     style="stop-color:#FFB757"
     id="stop5-5" /></linearGradient><linearGradient
   id="linearGradient885"
   gradientUnits="userSpaceOnUse"
   x1="12.8064"
   y1="73.193703"
   x2="73.193398"
   y2="12.8067"><stop
     offset="0"
     style="stop-color:#E36C34"
     id="stop881" /><stop
     offset="1"
     style="stop-color:#FFB757"
     id="stop883" /></linearGradient></defs><sodipodi:namedview
   pagecolor="#ffffff"
   bordercolor="#666666"
   borderopacity="1"
   objecttolerance="10"
   gridtolerance="10"
   guidetolerance="10"
   inkscape:pageopacity="0"
   inkscape:pageshadow="2"
   inkscape:window-width="1920"
   inkscape:window-height="1015"
   id="namedview17"
   showgrid="true"
   inkscape:zoom="5.8788529"
   inkscape:cx="37.662507"
   inkscape:cy="50.603965"
   inkscape:window-x="0"
   inkscape:window-y="0"
   inkscape:window-maximized="1"
   inkscape:current-layer="svg15"
   inkscape:document-rotation="0"><inkscape:grid
     type="xygrid"
     id="grid860" /></sodipodi:namedview>
<g
   id="Layer_2"
   display="none">
</g>
<path
   fill="url(#SVGID_1_)"
   d="M 84.277,0.3 H 43 C 19.417,0.3 0.3,19.418 0.3,43 v 41.277 c 0,0.786 0.637,1.423 1.423,1.423 H 43 C 66.583,85.7 85.7,66.582 85.7,43 V 1.723 C 85.7,0.937 85.063,0.3 84.277,0.3 Z"
   id="path8"
   style="fill:url(#SVGID_1_)" /><path
   id="path941"
   style="fill:#ffffff;opacity:0.9"
   d="M 43 0.30078125 C 42.434671 0.30078125 41.874448 0.32002635 41.314453 0.34179688 A 32 32 0 0 0 36 18 A 32 32 0 0 0 40.257812 33.947266 L 47.398438 31.566406 A 24.667501 24.6675 0 0 1 43.332031 18 A 24.667501 24.6675 0 0 1 50.818359 0.30078125 L 43 0.30078125 z M 85.699219 35.181641 A 24.667501 24.6675 0 0 1 68 42.667969 A 24.667501 24.6675 0 0 1 54.433594 38.601562 L 52.052734 45.742188 A 32 32 0 0 0 68 50 A 32 32 0 0 0 85.658203 44.6875 C 85.680023 44.126885 85.699219 43.56596 85.699219 43 L 85.699219 35.181641 z " />
<path
   id="path937"
   style="fill:#ffffff;opacity:0.9"
   d="M 18 36 C 11.471797 36 5.4033952 37.958212 0.34179688 41.314453 C 0.32002746 41.874426 0.30078125 42.434695 0.30078125 43 L 0.30078125 47.904297 C 2.2606799 46.340663 4.4314605 45.027238 6.7773438 44.035156 C 8.4535145 43.326197 10.185755 42.837917 12.009766 42.464844 C 12.918315 42.279153 13.856822 42.210594 14.794922 42.115234 C 15.167992 42.076374 15.641168 42.137634 16.017578 42.115234 C 16.062378 42.293702 15.747795 42.928188 15.322266 43.857422 C 12.612815 49.776481 12.458026 56.714797 14.972656 60.419922 C 15.427696 61.091685 15.839844 61.729392 15.839844 61.8125 C 15.839844 61.89556 15.349802 61.982422 14.794922 61.982422 C 13.492332 61.982422 12.258814 61.191643 9.7402344 59.197266 C 8.6213854 58.3113 7.1709419 57.567718 6.6074219 57.455078 C 5.7225117 57.2783 5.4846238 57.355105 4.3398438 58.5 C 3.274734 59.564919 2.9472656 60.140326 2.9472656 61.115234 C 2.9472656 64.812221 7.3320347 67.743335 15.490234 69.472656 C 26.569375 71.820815 29.301822 73.933951 29.607422 79.759766 C 29.719253 81.889078 29.455327 83.86129 28.832031 85.699219 L 43 85.699219 C 43.565329 85.699219 44.125552 85.679974 44.685547 85.658203 C 48.041789 80.596605 50 74.5282 50 68 C 50 64.268377 49.35574 60.689258 48.181641 57.359375 L 46.636719 61.992188 L 42.480469 57.835938 C 43.376761 59.692385 44.358996 62.0422 44.767578 63.552734 C 45.679028 66.922092 45.613069 72.750547 44.767578 76.097656 C 44.445798 77.371585 44.039534 78.566501 43.902344 78.714844 C 43.765204 78.863187 43.262944 78.009744 42.677734 76.972656 C 42.092455 75.935733 40.223521 73.729099 38.669922 72.089844 C 34.185512 67.35789 33.478981 64.89174 35.357422 61.115234 C 36.108008 59.606354 38.837139 56.592868 40.197266 55.552734 L 24.007812 39.363281 L 28.640625 37.818359 C 25.310741 36.64426 21.731623 36 18 36 z M 0.30078125 68.480469 L 0.30078125 84.277344 C 0.30078125 85.063344 0.9366563 85.699219 1.7226562 85.699219 L 10.779297 85.699219 C 10.063465 85.058807 8.5029976 83.925287 7.125 83.072266 C 5.6417802 82.154126 4.1459805 81.089806 3.8125 80.634766 C 3.25986 79.87963 3.217988 79.412582 3.6425781 78.017578 C 4.4163984 75.469775 5.3344503 74.047314 7.125 72.4375 C 8.0637108 71.593532 9.0068936 70.891914 9.2148438 70.875 C 9.4228438 70.85809 8.0214771 70.431891 5.9101562 70 C 4.236571 69.656967 1.9745542 69.019896 0.30078125 68.480469 z " /><g
   transform="matrix(0,2.2857143,-2.2857143,0,88.285714,1.7142854)"
   id="g7"
   style="opacity:0.9;fill:#ffffff;stroke-width:0.4375"><path
     style="fill:#ffffff;stroke-width:0.4375"
     class="ColorScheme-Text"
     d="M 6.5,1 C 6.5,1 5,1 5,2.5 V 4 H 2 C 1,4 1,5 1,5 V 8 H 2.5 C 4,8 4,9.5 4,9.5 4,9.5 4,11 2.5,11 H 1 v 3 c 0,1 1,1 1,1 h 3 v -1 c 0,-2 1.5,-2 1.5,-2 0,0 1.5,0 1.5,2 v 1 h 3 c 1,0 1,-1 1,-1 v -3 h 1.5 C 15,11 15,9.5 15,9.5 15,9.5 15,8 13.5,8 H 12 V 5 C 12,4 11,4 11,4 H 8 V 2.5 C 8,1 6.5,1 6.5,1 Z"
     id="path5" /></g><path
   id="path865"
   style="fill:#ffffff;stroke-width:4;stroke-linejoin:round;opacity:0.9"
   d="M 52.999998,32.999999 45.221823,56.334523 29.665474,40.778174 Z"
   sodipodi:nodetypes="cccc" /></svg>
